<svg xmlns="http://www.w3.org/2000/svg" width="444.5" height="89" viewBox="0 0 444.5 89">
  <g id="Group_1" data-name="Group 1" transform="translate(-782.5 -373.5)">
    <text id="AUTOMO" transform="translate(783.5 447.5)" fill="none" stroke="#707070" stroke-width="1" font-size="71" font-family="VerminVibesV, Vermin Vibes V"><tspan x="0" y="0">AUTOMO</tspan></text>
    <g id="Money" transform="translate(1165 385.609)">
      <path id="Path_1" data-name="Path 1" d="M7,25a4,4,0,0,1,4,4,1,1,0,0,0,1,1H52a1,1,0,0,0,1-1,4,4,0,0,1,4-4,1,1,0,0,0,1-1V12a1,1,0,0,0-1-1,4,4,0,0,1-4-4,1,1,0,0,0-1-1H12a1,1,0,0,0-1,1,4,4,0,0,1-4,4,1,1,0,0,0-1,1V24A1,1,0,0,0,7,25ZM8,12.917A6.017,6.017,0,0,0,12.917,8H51.083A6.017,6.017,0,0,0,56,12.917V23.083A6.017,6.017,0,0,0,51.083,28H12.917A6.017,6.017,0,0,0,8,23.083Z"/>
      <path id="Path_2" data-name="Path 2" d="M32,21a1,1,0,0,1-1-1,1,1,0,0,0-2,0,3,3,0,0,0,2,2.816V24a1,1,0,0,0,2,0V22.816A2.993,2.993,0,0,0,32,17a1,1,0,1,1,1-1,1,1,0,0,0,2,0,3,3,0,0,0-2-2.816V12a1,1,0,0,0-2,0v1.184A2.993,2.993,0,0,0,32,19a1,1,0,0,1,0,2Z" transform="translate(0 0.272)"/>
      <path id="Path_3" data-name="Path 3" d="M22,18A10,10,0,1,0,32,8,10,10,0,0,0,22,18Zm10-8a8,8,0,1,1-8,8,8,8,0,0,1,8-8Z"/>
      <path id="Path_4" data-name="Path 4" d="M61,2H3A1.012,1.012,0,0,0,2,3.023V62.368a1.012,1.012,0,0,0,1,1.023H61a1.012,1.012,0,0,0,1-1.023V3.023A1.012,1.012,0,0,0,61,2ZM8,49.066H22.2a9.957,9.957,0,0,0,19.6,0H56v3.154a6.088,6.088,0,0,0-4.917,5.031H12.917A6.088,6.088,0,0,0,8,52.221Zm25,0a1,1,0,1,1-2,0Zm-2,2.881v1.211a1,1,0,1,0,2,0V51.948a3.066,3.066,0,0,0,2-2.881h4.737a7.945,7.945,0,0,1-15.474,0H29a3.066,3.066,0,0,0,2,2.881ZM4,47.02V34.742H6v4.093a1.012,1.012,0,0,0,1,1.023,4.047,4.047,0,0,1,4,4.093,1.012,1.012,0,0,0,1,1.023H52a1.012,1.012,0,0,0,1-1.023,4.047,4.047,0,0,1,4-4.093,1.012,1.012,0,0,0,1-1.023V34.742h2V47.02ZM22.2,34.742a9.957,9.957,0,0,0,19.6,0H56V37.9a6.088,6.088,0,0,0-4.917,5.031H12.917A6.088,6.088,0,0,0,8,37.9V34.742Zm10.8,0a1,1,0,1,1-2,0Zm-2,2.881v1.211a1,1,0,1,0,2,0V37.623a3.066,3.066,0,0,0,2-2.881h4.737a7.945,7.945,0,0,1-15.474,0H29a3.066,3.066,0,0,0,2,2.881ZM4,4.046H60V32.7H4Zm0,57.3V49.066H6v4.093a1.012,1.012,0,0,0,1,1.023,4.047,4.047,0,0,1,4,4.093A1.012,1.012,0,0,0,12,59.3H52a1.012,1.012,0,0,0,1-1.023,4.047,4.047,0,0,1,4-4.093,1.012,1.012,0,0,0,1-1.023V49.066h2V61.344Z"/>
    </g>
  </g>
</svg>
